<?xml version="1.0" encoding="utf-8"?>
<!-- Generator: Adobe Illustrator 18.0.0, SVG Export Plug-In . SVG Version: 6.00 Build 0)  -->
<!DOCTYPE svg PUBLIC "-//W3C//DTD SVG 1.1//EN" "http://www.w3.org/Graphics/SVG/1.1/DTD/svg11.dtd">
<svg version="1.1" id="Layer_1" xmlns="http://www.w3.org/2000/svg" xmlns:xlink="http://www.w3.org/1999/xlink" x="0px" y="0px"
	 viewBox="0 0 64 64" enable-background="new 0 0 64 64" xml:space="preserve">
<g>
	<g>
		<g>
			<path fill="#A998F4" d="M29.9,0.1c19.3-1.2,35.2,14.7,34,34C62.9,50,50,62.9,34.1,63.9c-19.3,1.2-35.2-14.7-34-34
				C1.1,14,14,1.1,29.9,0.1z"/>
		</g>
	</g>
	<g>
		<g>
			<path fill="#D3D5DD" d="M45.3,52.5v1.2c0,1.3-1,2.3-2.3,2.3H15.7c-1,0-1.7-0.8-1.7-1.8V12.1c0-1,0.8-1.8,1.7-1.8h1.7L45.3,52.5z"
				/>
		</g>
	</g>
	<g>
		<g>
			<path fill="#FFFFFF" d="M50,17.1v33.7c0,0.9-0.8,1.7-1.7,1.7h-3H19.2c-0.9,0-1.6-0.6-1.7-1.7V10.3V9.7c0-0.9,0.8-1.7,1.7-1.7H41
				L50,17.1z"/>
		</g>
	</g>
	<g>
		<g>
			<polygon fill="#D3D5DD" points="41.9,8.9 50,17.1 41,17.1 41,8 			"/>
		</g>
	</g>
	<g>
		<g>
			<path fill="#D3D5DD" d="M44.9,23c0.6,0,1.1,0.4,1.1,1c0,0.5-0.5,1-1.1,1H23.1c-0.6,0-1.1-0.5-1.1-1c0-0.6,0.5-1,1.1-1H44.9z"/>
		</g>
	</g>
	<g>
		<g>
			<path fill="#D3D5DD" d="M44.6,28c0.6,0,1.1,0.5,1.1,1s-0.5,1-1.1,1H22.9c-0.6,0-1.1-0.5-1.1-1s0.5-1,1.1-1H44.6z"/>
		</g>
	</g>
	<g>
		<g>
			<path fill="#D3D5DD" d="M44.6,33c0.6,0,1.1,0.5,1.1,1s-0.5,1-1.1,1H22.9c-0.6,0-1.1-0.5-1.1-1s0.5-1,1.1-1H44.6z"/>
		</g>
	</g>
	<g>
		<g>
			<path fill="#D3D5DD" d="M44.6,38c0.6,0,1.1,0.5,1.1,1s-0.5,1-1.1,1H22.9c-0.6,0-1.1-0.5-1.1-1s0.5-1,1.1-1H44.6z"/>
		</g>
	</g>
	<g>
		<g>
			<path fill="#D3D5DD" d="M34.9,15c0.6,0,1.1,0.4,1.1,1c0,0.5-0.5,1-1.1,1H23.1c-0.6,0-1.1-0.5-1.1-1c0-0.6,0.5-1,1.1-1H34.9z"/>
		</g>
	</g>
</g>
</svg>
