<?xml version="1.0" standalone="no"?>
<!DOCTYPE svg PUBLIC "-//W3C//DTD SVG 20010904//EN"
 "http://www.w3.org/TR/2001/REC-SVG-20010904/DTD/svg10.dtd">
<svg version="1.0" xmlns="http://www.w3.org/2000/svg"
 width="200" height="200" viewBox="0 0 200.000000 200.000000"
 preserveAspectRatio="xMidYMid meet">

<g transform="translate(10.000000,180.000000) scale(0.03500,-0.035000)"
fill="#000000" stroke="none">
<path d="M1455 4315 c-594 -354 -1092 -655 -1107 -669 l-28 -24 0 -1705 c0
-938 3 -1713 6 -1722 4 -8 20 -23 37 -31 27 -14 244 -15 2210 -9 l2181 8 23
23 23 23 0 1709 c0 1614 -1 1711 -17 1730 -29 33 -2185 1306 -2218 1309 -25 3
-226 -114 -1110 -642z m1041 -618 c44 -58 143 -223 167 -277 39 -86 48 -144
56 -337 7 -187 8 -192 39 -255 39 -79 120 -159 199 -196 52 -24 70 -27 163
-27 99 0 110 2 171 32 80 40 160 121 196 200 20 43 27 78 31 150 l5 93 41 -57
c237 -329 422 -777 495 -1196 31 -178 42 -317 42 -522 0 -321 -38 -569 -142
-917 l-20 -68 -289 0 -290 0 -4 23 c-3 12 -10 46 -16 76 -50 252 -257 494
-504 588 -63 24 -78 35 -119 87 -28 35 -46 67 -43 76 3 8 14 40 25 70 35 96
21 205 -37 286 -20 28 -34 69 -51 149 -31 150 -67 223 -155 311 -63 63 -90 81
-224 148 l-152 76 0 120 0 120 28 0 c97 1 316 30 339 45 29 19 113 190 113
230 0 33 -42 75 -75 75 -44 0 -64 -18 -100 -90 -31 -61 -39 -70 -67 -74 -47
-8 -698 -66 -734 -66 -24 0 -35 9 -66 58 -21 32 -38 61 -38 63 0 3 24 30 54
60 72 75 99 145 95 253 l-3 78 139 72 140 71 62 153 c71 175 89 203 152 243
47 30 285 113 336 118 6 0 24 -19 41 -42z m292 -21 c82 -30 218 -106 304 -171
167 -126 260 -301 261 -490 1 -152 -90 -249 -233 -249 -72 0 -125 22 -172 71
-52 54 -61 93 -69 293 -9 237 -30 314 -126 470 -68 111 -67 110 -35 100 15 -4
46 -15 70 -24z m-1328 -736 c-6 -22 -24 -55 -39 -73 -25 -27 -31 -29 -45 -18
-19 16 -21 71 -3 93 16 21 91 59 95 48 2 -5 -2 -27 -8 -50z m460 -676 c0 -69
5 -134 10 -145 6 -11 88 -58 182 -105 260 -130 304 -182 351 -416 19 -94 30
-122 55 -154 42 -53 50 -108 24 -165 -32 -72 -123 -164 -200 -201 -60 -30 -75
-33 -157 -33 -110 0 -172 25 -259 104 -65 59 -102 66 -141 26 -44 -43 -35 -80
36 -147 190 -181 475 -197 687 -36 30 22 57 36 61 31 3 -5 28 -37 54 -70 43
-54 55 -63 115 -82 159 -52 305 -174 379 -318 42 -81 73 -169 73 -210 l0 -23
-926 2 -927 3 -28 95 c-165 547 -87 1110 223 1610 35 58 80 131 99 163 41 71
104 126 190 167 102 48 99 51 99 -96z"/>
<path d="M2134 3306 c-28 -28 -34 -42 -34 -76 0 -34 6 -48 34 -76 28 -28 42
-34 76 -34 34 0 48 6 76 34 28 28 34 42 34 76 0 34 -6 48 -34 76 -28 28 -42
34 -76 34 -34 0 -48 -6 -76 -34z"/>
<path d="M2750 2404 c-68 -31 -124 -84 -158 -149 -23 -43 -27 -62 -27 -140 0
-134 6 -143 329 -464 243 -243 278 -274 306 -274 28 0 63 31 306 274 323 321
329 330 329 464 0 78 -4 97 -27 140 -57 109 -163 175 -280 175 -101 0 -162
-27 -253 -112 l-75 -70 -75 70 c-91 85 -152 112 -253 112 -51 0 -80 -6 -122
-26z"/>
<path d="M2115 1701 c-40 -18 -60 -51 -60 -102 0 -40 5 -54 28 -76 23 -23 36
-28 77 -28 41 0 54 5 77 28 23 23 28 36 28 77 0 40 -5 55 -26 76 -28 28 -89
40 -124 25z"/>
</g>
</svg>
